<svg height="32" style="shape-rendering:geometricPrecision;text-rendering:geometricPrecision;image-rendering:optimizeQuality;fill-rule:evenodd;clip-rule:evenodd" viewBox="0 0 846.66 846.66" width="32" xml:space="preserve" xmlns="http://www.w3.org/2000/svg"><path d="M794.43 413.72c0-27.14 41.27-27.14 41.27 0v367.7a20.64 20.64 0 0 1-20.64 20.63H31.6a20.63 20.63 0 0 1-20.63-20.63v-367.7c0-27.14 41.26-27.14 41.26 0v347.07h92.12V560.32c0-11.4 9.23-20.63 20.63-20.63h108.14c11.4 0 20.64 9.23 20.64 20.63v200.47h54.86V384.88a20.63 20.63 0 0 1 20.63-20.63H477.4c11.4 0 20.63 9.24 20.63 20.63v375.91h54.87V65.24a20.64 20.64 0 0 1 20.64-20.63h108.14c11.4 0 20.63 9.24 20.63 20.63v695.55h92.12V413.72zM198.42 140.2c0-27.13 41.26-27.13 41.26 0v10.39h41.94c27.14 0 27.14 41.26 0 41.26h-41.94v52.87h10.93c37.17 0 67.69 30.52 67.69 67.69 0 37.28-30.42 67.7-67.69 67.7h-10.93v10.38c0 27.14-41.26 27.14-41.26 0v-10.38h-41.94c-27.14 0-27.14-41.27 0-41.27h41.94v-52.86H187.5c-37.21 0-67.69-30.47-67.69-67.69 0-37.28 30.41-67.7 67.69-67.7h10.92V140.2zm41.26 145.78v52.86h10.93a26.57 26.57 0 0 0 26.43-26.43 26.45 26.45 0 0 0-26.43-26.43h-10.93zm-41.26-41.26v-52.87H187.5a26.57 26.57 0 0 0-26.43 26.44 26.5 26.5 0 0 0 26.43 26.43h10.92zm395.75 516.07h66.88V85.87h-66.88v674.92zm-204.28 0h66.88V405.51h-66.88v355.28zm-204.28 0h66.88V580.95h-66.88v179.84z" style="fill:#000;fill-rule:nonzero"/></svg>