<svg height="32" style="shape-rendering:geometricPrecision;text-rendering:geometricPrecision;image-rendering:optimizeQuality;fill-rule:evenodd;clip-rule:evenodd" viewBox="0 0 846.66 846.66" width="32" xml:space="preserve" xmlns="http://www.w3.org/2000/svg"><path d="M88.95 756.74a20.63 20.63 0 0 1-20.63-20.63v-75.52H31.26c-27.13 0-27.13-41.26 0-41.26h37.06v-83.37H31.26c-27.13 0-27.13-41.26 0-41.26h37.06v-83.38H31.26c-27.13 0-27.13-41.26 0-41.26h37.06v-83.37H31.26c-27.13 0-27.13-41.26 0-41.26h37.06v-75.52c0-27.14 41.26-27.14 41.26 0v545.57h105.1V570.52c0-27.13 41.26-27.13 41.26 0v144.96h103.32V404.94c0-27.14 41.26-27.14 41.26 0v310.54h103.31V315.2c0-27.14 41.27-27.14 41.27 0v400.28h103.31v-261.4c0-27.14 41.26-27.14 41.26 0v261.4H815.4c27.13 0 27.13 41.26 0 41.26H88.95zm162.24-646.47c0-27.13 41.27-27.13 41.27 0v11.5h44.17c27.14 0 27.14 41.26 0 41.26h-44.17v56.21h12.05c38.08 0 69.36 31.29 69.36 69.37 0 38.15-31.23 69.37-69.36 69.37h-12.05v11.49c0 27.14-41.27 27.14-41.27 0v-11.49h-44.16c-27.14 0-27.14-41.26 0-41.26h44.16V260.5h-12.04c-38.09 0-69.37-31.27-69.37-69.37 0-38.08 31.29-69.36 69.37-69.36h12.04v-11.5zm41.27 150.23v56.22h12.05a28.1 28.1 0 0 0 0-56.22h-12.05zm-41.27-41.26v-56.21h-12.04a28.1 28.1 0 1 0 0 56.21h12.04z" style="fill:#000;fill-rule:nonzero"/></svg>